# xmcd
#
# Track frame offsets: 
#        150
#        17385
#        34672
#        52835
#        86410
#        120435
#        152230
#
# Disc length: 2491 seconds
#
# Revision: 0
# Processed by: cddbd v1.5.2PL0 Copyright (c) Steve Scherf et al.
# Submitted via: ExactAudioCopy v0.95b4
#
DISCID=4109b907
DTITLE=Anaconda - I need a hero
DYEAR=2002
DGENRE=
TTITLE0=Anaconda DJ Edit
TTITLE1=Klubbingman Radio Edit
TTITLE2=Original Radio Mix
TTITLE3=Anaconda DJ Club Mix
TTITLE4=Klubbingman Club Mix
TTITLE5=Avancada Remix
TTITLE6=Original Extended Mix
EXTD=
EXTT0=
EXTT1=
EXTT2=
EXTT3=
EXTT4=
EXTT5=
EXTT6=
PLAYORDER=
